<svg xmlns="http://www.w3.org/2000/svg" width="640" height="640" viewBox="0 0 640 640" version="1.1">
	<path d="M 136.139 64.142 C 128.418 66.376, 121.444 72.598, 117.804 80.500 L 115.500 85.500 115.238 318.500 C 114.945 578.131, 114.371 556.652, 121.873 566.603 C 123.981 569.398, 127.697 572.672, 130.533 574.231 L 135.500 576.962 321.579 576.731 L 507.657 576.500 512.579 573.471 C 515.362 571.757, 518.908 568.348, 520.741 565.622 C 527.478 555.601, 527.001 574.313, 526.988 320.568 C 526.975 74.201, 527.187 84.885, 522.167 76.775 C 519.363 72.245, 515.306 68.598, 510 65.840 L 505.500 63.500 322.500 63.335 C 206.412 63.230, 138.271 63.525, 136.139 64.142 M 132.414 70.960 C 127.532 73.133, 122.714 78.673, 121.141 83.922 C 120.065 87.516, 119.595 98.202, 120.654 95 C 122.098 90.637, 125.908 84.197, 129.019 80.859 C 133.263 76.306, 144.017 71.223, 151.829 70.076 C 156.998 69.318, 156.571 69.239, 147 69.193 C 138.929 69.153, 135.555 69.562, 132.414 70.960 M 488.653 70.095 C 502.384 72.389, 512.173 79.031, 517.189 89.460 L 520.094 95.500 519.887 90 C 519.659 83.933, 518.444 80.870, 514.328 75.978 C 509.812 70.611, 504.996 69.030, 493.500 69.139 C 484.418 69.225, 483.973 69.313, 488.653 70.095 M 139.302 85.012 C 134.094 87.109, 134 88.085, 134 139.950 L 134 188 321 188 L 508 188 508 139.950 C 508 87.638, 507.942 87.069, 502.387 84.957 C 499.143 83.724, 142.368 83.777, 139.302 85.012 M 185.463 114.591 C 175.550 118.111, 169.792 126.564, 169.876 137.473 C 169.931 144.695, 171.509 148.676, 176.362 153.838 C 181.122 158.901, 186.016 161.009, 193.261 161.118 C 200.557 161.227, 205.122 159.588, 210.382 154.970 C 215.893 150.131, 218 145.301, 218 137.508 C 218 129.399, 216.492 125.703, 210.977 120.291 C 204.062 113.505, 194.524 111.374, 185.463 114.591 M 307.441 120.567 C 301.063 124.703, 298.571 129.322, 298.533 137.082 C 298.505 142.661, 298.917 144.260, 301.234 147.582 C 306.742 155.477, 314.823 158.471, 323.974 156.007 C 337.518 152.360, 342.519 134.321, 332.774 124.267 C 328.125 119.470, 324.553 118, 317.547 118 C 312.643 118, 310.600 118.519, 307.441 120.567 M 353.840 120.887 C 342.237 128.245, 341.992 144.263, 353.343 153.405 C 356.853 156.232, 357.805 156.496, 364.343 156.458 C 372.839 156.408, 377.178 154.236, 381.636 147.804 C 384.080 144.277, 384.500 142.705, 384.500 137.085 C 384.500 131.354, 384.123 130.008, 381.594 126.700 C 374.682 117.665, 362.834 115.183, 353.840 120.887 M 400.756 120.570 C 393.828 125.107, 390.233 133.664, 391.987 141.442 C 395.555 157.263, 415.807 162.221, 426.385 149.863 C 434.788 140.046, 432.526 127.285, 421.137 120.255 C 415.875 117.007, 405.962 117.160, 400.756 120.570 M 449.500 119.162 C 439.263 124.799, 435.334 136.179, 440.284 145.854 C 447.712 160.374, 468.649 160.409, 476.044 145.914 C 478.366 141.363, 478.633 133.109, 476.585 129.200 C 475.051 126.272, 469.842 121.250, 466.264 119.250 C 463.518 117.715, 452.235 117.656, 449.500 119.162 M 309.801 127.012 C 303.466 132.234, 302.687 139.039, 307.658 145.719 C 312.369 152.048, 323.155 152.169, 328.387 145.952 C 333.682 139.659, 332.689 131.428, 326.071 126.750 C 320.565 122.858, 314.727 122.952, 309.801 127.012 M 356.769 126.511 C 349.727 131.296, 349.369 141.148, 356.006 147.506 C 358.587 149.978, 359.861 150.427, 364.278 150.417 C 373.070 150.398, 378 145.465, 378 136.685 C 378 126.201, 365.817 120.363, 356.769 126.511 M 404.299 125.960 C 400.312 128.390, 398 132.726, 398 137.770 C 398 142.724, 403.371 149.424, 408.100 150.370 C 416.295 152.009, 424.010 146.393, 424.685 138.297 C 425.164 132.543, 423.693 129.384, 419.088 126.280 C 414.848 123.423, 408.678 123.289, 404.299 125.960 M 450.041 126.619 C 446.412 129.672, 444 133.919, 444 137.255 C 444 138.549, 445.325 141.697, 446.944 144.251 C 449.260 147.902, 450.746 149.124, 453.906 149.975 C 468.680 153.953, 478.225 135.986, 466.245 126.750 C 461.316 122.950, 454.467 122.895, 450.041 126.619 M 188.174 131.314 C 183.098 136.718, 186.694 145, 194.116 145 C 201.315 145, 204.654 136.364, 199.354 131.452 C 195.903 128.254, 191.105 128.195, 188.174 131.314 M 134 374.050 C 134 564.397, 133.639 552.772, 139.613 555.043 C 141.182 555.639, 209.844 556, 321.874 556 C 464.178 556, 501.940 555.740, 503.163 554.750 C 504.012 554.063, 505.448 552.387, 506.354 551.027 C 507.866 548.756, 508 534.406, 508 374.277 L 508 200 321 200 L 134 200 134 374.050 M 165.239 233.335 C 160.732 234.969, 155.349 239.451, 153.282 243.288 C 151.666 246.288, 151.552 255.504, 151.551 383 C 151.550 508.733, 151.682 519.745, 153.224 522.602 C 155.595 526.995, 161.295 531.710, 165.723 532.940 C 168.282 533.651, 218.406 533.991, 321.124 533.994 C 487.197 534.001, 477.910 534.330, 484.305 528.211 C 490.964 521.840, 490.500 532.719, 490.500 383 C 490.500 255.418, 490.397 247.284, 488.730 243.806 C 486.534 239.224, 481.104 234.647, 476.078 233.141 C 470.520 231.476, 169.847 231.663, 165.239 233.335 M 174.500 237.944 C 161.129 239.004, 157.975 242.779, 158.036 257.651 L 158.072 266.500 160.036 261.038 C 161.116 258.035, 162 255.448, 162 255.291 C 162 255.134, 163.644 253.186, 165.653 250.962 C 169.803 246.369, 176.743 242.869, 186.090 240.656 C 201.611 236.981, 201.259 237.202, 191.500 237.258 C 186.550 237.286, 178.900 237.595, 174.500 237.944 M 445.500 238.093 C 447.700 238.668, 452.385 239.821, 455.910 240.656 C 472.117 244.493, 479.725 251.178, 483.047 264.500 C 483.550 266.516, 483.829 264.380, 483.898 257.984 C 483.978 250.510, 483.605 247.732, 482.158 245.035 C 479.045 239.229, 475.584 238.183, 457.500 237.580 C 445.311 237.174, 442.453 237.296, 445.500 238.093 M 179.400 294.428 C 175.320 296.204, 173.787 300.677, 175.621 305.455 C 177.421 310.145, 172.787 310, 321 310 C 469.213 310, 464.579 310.145, 466.379 305.455 C 468.300 300.449, 466.409 295.687, 461.872 294.105 C 459.614 293.318, 418.945 293.011, 320.601 293.039 C 206.945 293.071, 181.951 293.317, 179.400 294.428 M 296 326.871 C 257.733 335.245, 229.739 363.577, 221.768 401.995 C 218.431 418.081, 220.165 441.740, 225.890 458.232 C 234.086 481.842, 252.659 502.752, 275.500 514.084 C 290.750 521.649, 302.180 524.264, 320 524.264 C 332.408 524.264, 335.943 523.888, 344.500 521.655 C 382.130 511.834, 410.019 482.231, 418.128 443.500 C 418.819 440.200, 419.384 431.875, 419.384 425 C 419.384 418.125, 418.819 409.800, 418.128 406.500 C 409.679 366.148, 380.276 336.168, 340.500 327.348 C 329.330 324.871, 306.266 324.624, 296 326.871 M 306.965 362.934 C 307.534 363.998, 308 366.473, 308 368.434 C 308 371.571, 308.301 372, 310.500 372 C 312.779 372, 313 371.620, 313 367.700 C 313 362.860, 311.686 361, 308.265 361 C 306.266 361, 306.079 361.279, 306.965 362.934 M 326.800 362.200 C 327.460 362.860, 328 365.560, 328 368.200 C 328 372.653, 328.181 373, 330.500 373 C 332.819 373, 333 372.653, 333 368.200 C 333 362.814, 331.765 361, 328.100 361 C 326.156 361, 325.867 361.267, 326.800 362.200 M 350.569 383.464 C 351.457 384.820, 352.429 388.642, 352.730 391.958 C 353.612 401.691, 349.708 409.184, 341.563 413.390 L 338.625 414.907 341.378 415.954 C 345.465 417.507, 346.967 417.263, 350.665 414.442 C 355.542 410.722, 358 405.248, 358 398.105 C 358 391.052, 356.823 387.496, 353.249 383.750 C 349.989 380.333, 348.406 380.164, 350.569 383.464 M 277 383.800 C 277 385.882, 280.898 389, 283.500 389 C 285.333 389, 286 388.467, 286 387 C 286 385.404, 285.333 385, 282.700 385 C 280.885 385, 278.860 384.460, 278.200 383.800 C 277.267 382.867, 277 382.867, 277 383.800 M 308 397.357 L 308 411 310.468 411 L 312.937 411 313.218 399.250 L 313.500 387.500 321.446 387.631 C 329.042 387.755, 329.267 387.696, 326.558 386.277 C 325 385.460, 320.187 384.550, 315.862 384.253 L 308 383.714 308 397.357 M 354.239 425.674 C 356.140 428.891, 356.500 430.945, 356.500 438.578 C 356.500 446.929, 356.259 448.043, 353.500 452.472 C 349.570 458.780, 342.297 462.981, 334.004 463.733 L 328 464.278 328 469.439 C 328 472.277, 327.460 475.140, 326.800 475.800 C 325.222 477.378, 317.781 477.343, 316.012 475.750 C 315.019 474.857, 315.067 475.213, 316.178 477 C 317.515 479.149, 318.579 479.541, 323.751 479.795 C 331.195 480.159, 333 478.737, 333 472.508 C 333 467.750, 332.386 468.141, 342.453 466.484 C 350.544 465.152, 357.489 459.864, 360.447 452.782 C 361.364 450.587, 362 446.109, 362 441.848 C 362 433.439, 359.542 427.234, 354.903 423.931 L 351.978 421.848 354.239 425.674 M 308 438.875 L 308 454 310.500 454 L 313 454 313 440.361 L 313 426.723 322.250 427.220 C 331.173 427.699, 331.376 427.664, 328 426.207 C 326.075 425.376, 320.788 424.483, 316.250 424.223 L 308 423.749 308 438.875 M 277.606 464.416 C 278.606 467.023, 281.423 468, 287.934 468 C 293.333 468, 294 467.780, 294 466 C 294 464.193, 293.333 464, 287.082 464 C 283.277 464, 279.447 463.725, 278.570 463.389 C 277.396 462.938, 277.143 463.208, 277.606 464.416 M 308 468.929 C 308 472.076, 307.432 474.425, 306.429 475.429 C 304.576 477.281, 297.922 477.522, 296.200 475.800 C 295.464 475.064, 295 475.004, 295 475.645 C 295 478.206, 298.779 480, 304.174 480 C 310.957 480, 313 478.188, 313 472.171 C 313 469.877, 313.450 468, 314 468 C 314.550 468, 315 467.100, 315 466 C 315 464.381, 314.333 464, 311.500 464 L 308 464 308 468.929" stroke="none" fill="black" fill-rule="evenodd"/>
</svg>